<mxfile host="app.diagrams.net" modified="2022-02-15T07:46:38.105Z" agent="5.0 (Macintosh; Intel Mac OS X 10_15_7) AppleWebKit/605.1.15 (KHTML, like Gecko) Version/15.1 Safari/605.1.15" etag="UpXU3dYLFof5dK7EwlJG" version="16.5.6" type="github">
  <diagram id="omVq7-vvXgY30j-18rKU" name="Page-1">
    <mxGraphModel dx="830" dy="600" grid="1" gridSize="10" guides="1" tooltips="1" connect="1" arrows="1" fold="1" page="1" pageScale="1" pageWidth="827" pageHeight="1169" math="0" shadow="0">
      <root>
        <mxCell id="0" />
        <mxCell id="1" parent="0" />
        <mxCell id="Oh_HkyLoRYb603GUVOSf-2" value="" style="rounded=0;whiteSpace=wrap;html=1;dashed=1;" parent="1" vertex="1">
          <mxGeometry x="22" y="150" width="538" height="360" as="geometry" />
        </mxCell>
        <mxCell id="ue3UzsBmNjBTCAH4iO8g-4" value="" style="rounded=0;whiteSpace=wrap;html=1;strokeWidth=2;" vertex="1" parent="1">
          <mxGeometry x="98" y="390" width="412" height="91" as="geometry" />
        </mxCell>
        <mxCell id="ue3UzsBmNjBTCAH4iO8g-3" value="" style="rounded=0;whiteSpace=wrap;html=1;strokeWidth=2;" vertex="1" parent="1">
          <mxGeometry x="98" y="180" width="412" height="80" as="geometry" />
        </mxCell>
        <mxCell id="ue3UzsBmNjBTCAH4iO8g-2" value="" style="rounded=0;whiteSpace=wrap;html=1;strokeWidth=2;" vertex="1" parent="1">
          <mxGeometry x="98" y="289" width="412" height="91" as="geometry" />
        </mxCell>
        <mxCell id="Oh_HkyLoRYb603GUVOSf-20" value="&lt;font style=&quot;font-size: 14px&quot;&gt;&lt;b&gt;应用层&lt;/b&gt;&lt;/font&gt;" style="text;html=1;strokeColor=none;fillColor=none;align=center;verticalAlign=middle;whiteSpace=wrap;rounded=0;" parent="1" vertex="1">
          <mxGeometry x="12" y="310" width="92.5" height="30" as="geometry" />
        </mxCell>
        <mxCell id="Oh_HkyLoRYb603GUVOSf-25" value="&lt;font style=&quot;font-size: 14px&quot;&gt;&lt;b&gt;处理层&lt;/b&gt;&lt;/font&gt;" style="text;html=1;strokeColor=none;fillColor=none;align=center;verticalAlign=middle;whiteSpace=wrap;rounded=0;" parent="1" vertex="1">
          <mxGeometry x="12" y="420.5" width="92.5" height="30" as="geometry" />
        </mxCell>
        <mxCell id="Oh_HkyLoRYb603GUVOSf-30" value="webUI" style="rounded=0;whiteSpace=wrap;html=1;fontSize=12;fillColor=none;" parent="1" vertex="1">
          <mxGeometry x="120" y="205" width="350" height="30" as="geometry" />
        </mxCell>
        <mxCell id="Oh_HkyLoRYb603GUVOSf-31" value="&lt;font style=&quot;font-size: 14px&quot;&gt;&lt;b&gt;表现层&lt;/b&gt;&lt;/font&gt;" style="text;html=1;strokeColor=none;fillColor=none;align=center;verticalAlign=middle;whiteSpace=wrap;rounded=0;" parent="1" vertex="1">
          <mxGeometry x="12" y="200" width="92.5" height="30" as="geometry" />
        </mxCell>
        <mxCell id="Oh_HkyLoRYb603GUVOSf-35" value="数据库连接" style="rounded=0;whiteSpace=wrap;html=1;fontSize=12;fillColor=none;" parent="1" vertex="1">
          <mxGeometry x="120" y="420.5" width="110" height="30" as="geometry" />
        </mxCell>
        <mxCell id="Oh_HkyLoRYb603GUVOSf-37" value="&lt;b&gt;&lt;font style=&quot;font-size: 18px&quot;&gt;DTS异常预案处理&lt;/font&gt;&lt;/b&gt;" style="text;html=1;strokeColor=none;fillColor=none;align=center;verticalAlign=middle;whiteSpace=wrap;rounded=0;fontFamily=Helvetica;" parent="1" vertex="1">
          <mxGeometry x="40" y="150" width="150" height="30" as="geometry" />
        </mxCell>
        <mxCell id="Oh_HkyLoRYb603GUVOSf-43" value="参数配置" style="rounded=0;whiteSpace=wrap;html=1;fontSize=12;fillColor=none;" parent="1" vertex="1">
          <mxGeometry x="120" y="320" width="100" height="30" as="geometry" />
        </mxCell>
        <mxCell id="Oh_HkyLoRYb603GUVOSf-45" value="发送feedback" style="rounded=0;whiteSpace=wrap;html=1;fontSize=12;fillColor=none;" parent="1" vertex="1">
          <mxGeometry x="370" y="420.5" width="100" height="30" as="geometry" />
        </mxCell>
        <mxCell id="Oh_HkyLoRYb603GUVOSf-46" value="预案执行" style="rounded=0;whiteSpace=wrap;html=1;fontSize=12;fillColor=none;" parent="1" vertex="1">
          <mxGeometry x="250" y="319.5" width="100" height="30" as="geometry" />
        </mxCell>
        <mxCell id="ue3UzsBmNjBTCAH4iO8g-1" value="slot校验" style="rounded=0;whiteSpace=wrap;html=1;fontSize=12;fillColor=none;" vertex="1" parent="1">
          <mxGeometry x="250" y="420.5" width="100" height="30" as="geometry" />
        </mxCell>
        <mxCell id="ue3UzsBmNjBTCAH4iO8g-5" value="结果展示" style="rounded=0;whiteSpace=wrap;html=1;fontSize=12;fillColor=none;" vertex="1" parent="1">
          <mxGeometry x="370" y="320" width="100" height="30" as="geometry" />
        </mxCell>
      </root>
    </mxGraphModel>
  </diagram>
</mxfile>
